<svg version="1.1" id="Layer_1" xmlns="http://www.w3.org/2000/svg" xmlns:xlink="http://www.w3.org/1999/xlink" x="0px" y="0px"
	 width="100%" viewBox="0 0 136 139" enable-background="new 0 0 136 139" xml:space="preserve">
<path fill="#050505" opacity="1.000000" stroke="none" 
	d="
M137.000000,85.000000 
	C137.000000,103.311752 137.000000,121.623505 137.000000,139.935257 
	C136.855103,139.956833 136.710220,139.997314 136.565323,139.997330 
	C91.451820,140.000061 46.338314,140.000000 1.112405,140.000000 
	C1.112405,93.666817 1.112405,47.333454 1.111701,1.000045 
	C14.761559,1.000000 28.412121,1.000000 42.843338,1.279336 
	C42.713661,2.206349 41.711525,2.757452 40.909893,3.519476 
	C38.313171,5.987902 35.224575,8.317301 36.091995,12.549599 
	C37.038727,17.168892 40.259769,20.873875 44.567360,20.638525 
	C47.799854,20.461916 51.721596,17.554655 53.766129,14.727465 
	C56.543339,10.887134 54.564667,6.870143 51.044815,3.814369 
	C50.191730,3.073765 49.672661,1.948427 49.000000,1.000000 
	C54.022091,1.000000 59.044186,1.000000 64.871201,1.347822 
	C64.063675,2.313503 62.451233,2.931361 60.508034,3.675959 
	C61.060902,5.807244 61.663963,8.132032 62.238777,10.347913 
	C96.993752,7.948694 118.267326,28.381729 125.880165,50.065491 
	C134.150070,73.620834 126.589447,102.326714 108.953979,114.918976 
	C96.591827,98.654427 84.225639,82.384560 71.724335,65.936943 
	C81.343452,55.163097 90.792488,44.579739 101.018745,33.125870 
	C95.537560,33.125870 91.263969,32.919727 87.028648,33.232224 
	C85.441597,33.349323 83.535301,34.307735 82.466766,35.501938 
	C68.474396,51.139862 54.593689,66.877907 40.738476,82.637871 
	C39.926373,83.561615 39.106300,84.877449 39.080887,86.028290 
	C38.927444,92.977577 39.004562,99.931961 39.004562,106.998116 
	C43.732922,106.998116 47.971870,106.998116 52.651566,106.998116 
	C52.651566,100.937454 52.561741,95.138779 52.675045,89.344070 
	C52.806984,82.596039 59.175743,80.466034 62.282867,75.466850 
	C76.240700,93.812523 89.707222,111.512436 103.204521,129.252808 
	C119.297043,119.131744 129.853531,105.558823 134.837860,87.719215 
	C135.124954,86.691666 136.259735,85.900940 137.000000,85.000000 
M51.825649,59.064152 
	C51.957062,58.715038 52.088478,58.365929 52.431942,57.581676 
	C52.431942,57.581676 52.370182,57.101574 52.681499,56.335960 
	C52.707294,47.242531 52.742935,38.149113 52.750599,29.055668 
	C52.752136,27.231405 53.219189,24.888191 49.478157,26.015221 
	C49.478157,26.015221 49.003544,26.108517 48.504116,25.974026 
	C48.335812,26.011433 48.167511,26.048840 47.599586,25.973915 
	C47.599586,25.973915 47.191898,25.895729 46.959759,25.380825 
	C46.573303,25.551785 46.186844,25.722742 45.395210,25.965527 
	C45.395210,25.965527 44.998505,26.074839 44.214520,25.932657 
	C42.619335,25.807148 41.024155,25.681639 39.116844,25.531570 
	C39.116844,27.429062 39.116844,29.209274 39.007542,31.922451 
	C39.047092,42.613647 39.086643,53.304848 38.980980,64.495850 
	C39.021603,64.664513 39.062222,64.833183 38.981457,65.836609 
	C38.981457,67.999062 38.981457,70.161514 38.981457,73.753815 
	C43.341484,68.694702 46.667931,64.834892 50.496780,60.708725 
	C50.769882,60.221264 51.042984,59.733803 51.121193,59.078083 
	C51.121193,59.078083 51.278046,59.282265 51.825649,59.064152 
M56.938103,128.849731 
	C18.322836,119.610352 0.960060,78.278755 16.010859,45.885780 
	C20.047773,37.197357 26.799351,29.770256 32.304722,21.764124 
	C32.746983,21.942381 33.189240,22.120636 33.631500,22.298893 
	C32.416794,20.208807 31.202087,18.118721 29.958155,15.978349 
	C1.982839,37.365574 -5.110828,75.675674 12.984651,105.868431 
	C29.920307,134.125992 67.087669,146.040680 96.112312,132.514206 
	C94.190102,127.667122 91.470970,125.978294 85.896164,127.957062 
	C76.789970,131.189285 67.233894,130.851273 56.938103,128.849731 
z"/>
<path fill="#F5F5F5" opacity="1.000000" stroke="none" 
	d="
M137.000000,84.531342 
	C136.259735,85.900940 135.124954,86.691666 134.837860,87.719215 
	C129.853531,105.558823 119.297043,119.131744 103.204521,129.252808 
	C89.707222,111.512436 76.240700,93.812523 62.282867,75.466850 
	C59.175743,80.466034 52.806984,82.596039 52.675045,89.344070 
	C52.561741,95.138779 52.651566,100.937454 52.651566,106.998116 
	C47.971870,106.998116 43.732922,106.998116 39.004562,106.998116 
	C39.004562,99.931961 38.927444,92.977577 39.080887,86.028290 
	C39.106300,84.877449 39.926373,83.561615 40.738476,82.637871 
	C54.593689,66.877907 68.474396,51.139862 82.466766,35.501938 
	C83.535301,34.307735 85.441597,33.349323 87.028648,33.232224 
	C91.263969,32.919727 95.537560,33.125870 101.018745,33.125870 
	C90.792488,44.579739 81.343452,55.163097 71.724335,65.936943 
	C84.225639,82.384560 96.591827,98.654427 108.953979,114.918976 
	C126.589447,102.326714 134.150070,73.620834 125.880165,50.065491 
	C118.267326,28.381729 96.993752,7.948694 62.238777,10.347913 
	C61.663963,8.132032 61.060902,5.807244 60.508034,3.675959 
	C62.451233,2.931361 64.063675,2.313503 65.338058,1.347822 
	C67.370560,1.000000 69.741112,1.000000 72.233459,1.357629 
	C75.185707,2.282173 78.016792,2.846016 80.846535,3.416479 
	C108.858192,9.063497 126.639778,25.825245 134.870682,53.033886 
	C135.204224,54.136406 136.273514,55.016354 137.000000,56.000000 
	C137.000000,65.354225 137.000000,74.708458 137.000000,84.531342 
z"/>
<path fill="#050505" opacity="1.000000" stroke="none" 
	d="
M137.000000,55.531342 
	C136.273514,55.016354 135.204224,54.136406 134.870682,53.033886 
	C126.639778,25.825245 108.858192,9.063497 80.846535,3.416479 
	C78.016792,2.846016 75.185707,2.282173 72.677628,1.357629 
	C94.254601,1.000000 115.509209,1.000000 137.000000,1.000000 
	C137.000000,19.020206 137.000000,37.041447 137.000000,55.531342 
z"/>
<path fill="#23A5DA" opacity="1.000000" stroke="none" 
	d="
M48.571537,1.000000 
	C49.672661,1.948427 50.191730,3.073765 51.044815,3.814369 
	C54.564667,6.870143 56.543339,10.887134 53.766129,14.727465 
	C51.721596,17.554655 47.799854,20.461916 44.567360,20.638525 
	C40.259769,20.873875 37.038727,17.168892 36.091995,12.549599 
	C35.224575,8.317301 38.313171,5.987902 40.909893,3.519476 
	C41.711525,2.757452 42.713661,2.206349 43.311996,1.279336 
	C44.714359,1.000000 46.428715,1.000000 48.571537,1.000000 
z"/>
<path fill="#F2F2F2" opacity="1.000000" stroke="none" 
	d="
M57.356327,128.917603 
	C67.233894,130.851273 76.789970,131.189285 85.896164,127.957062 
	C91.470970,125.978294 94.190102,127.667122 96.111877,132.515228 
	C67.087669,146.040680 29.920307,134.125992 12.984651,105.868431 
	C-5.110828,75.675674 1.982839,37.365574 29.958155,15.978349 
	C31.202087,18.118721 32.416794,20.208807 33.631500,22.298893 
	C33.189240,22.120636 32.746983,21.942381 32.304722,21.764124 
	C26.799351,29.770256 20.047773,37.197357 16.010859,45.885780 
	C0.960060,78.278755 18.322836,119.610352 57.356327,128.917603 
z"/>
<path fill="#23A8DF" opacity="1.000000" stroke="none" 
	d="
M39.126194,63.996044 
	C39.086643,53.304848 39.047092,42.613647 39.296616,31.186258 
	C39.364632,26.486021 43.102551,27.419827 44.998505,26.074839 
	C44.998505,26.074839 45.395210,25.965527 45.945690,25.936546 
	C46.728077,25.903620 46.959988,25.899675 47.191898,25.895729 
	C47.191898,25.895729 47.599586,25.973915 47.897552,26.163109 
	C48.195522,26.352304 48.647781,26.426844 48.647781,26.426844 
	C48.647781,26.426844 49.003544,26.108517 49.003544,26.108517 
	C49.003544,26.108517 49.478157,26.015221 50.023640,26.286968 
	C50.733765,34.915474 50.828545,43.274654 51.117550,51.627113 
	C51.181114,53.464180 51.934475,55.277382 52.370182,57.101574 
	C52.370182,57.101574 52.431942,57.581676 52.076122,57.931496 
	C51.572884,58.614964 51.425465,58.948612 51.278046,59.282265 
	C51.278046,59.282265 51.121193,59.078083 50.924828,59.239307 
	C50.483768,59.925381 50.239075,60.450230 49.994381,60.975079 
	C46.667931,64.834892 43.341484,68.694702 38.981457,73.753815 
	C38.981457,70.161514 38.981457,67.999062 39.185486,65.324875 
	C39.439007,64.710899 39.557091,64.570923 39.525406,64.513329 
	C39.421680,64.324760 39.263462,64.166161 39.126194,63.996044 
z"/>
<path fill="#1E93C3" opacity="1.000000" stroke="none" 
	d="
M52.525841,56.718765 
	C51.934475,55.277382 51.181114,53.464180 51.117550,51.627113 
	C50.828545,43.274654 50.733765,34.915474 50.264435,26.264412 
	C53.219189,24.888191 52.752136,27.231405 52.750599,29.055668 
	C52.742935,38.149113 52.707294,47.242531 52.525841,56.718765 
z"/>
<path fill="#1E93C3" opacity="1.000000" stroke="none" 
	d="
M44.606514,26.003748 
	C43.102551,27.419827 39.364632,26.486021 39.351265,30.719776 
	C39.116844,29.209274 39.116844,27.429062 39.116844,25.531570 
	C41.024155,25.681639 42.619335,25.807148 44.606514,26.003748 
z"/>
<path fill="#1E93C3" opacity="1.000000" stroke="none" 
	d="
M50.245583,60.841904 
	C50.239075,60.450230 50.483768,59.925381 51.022278,59.323433 
	C51.042984,59.733803 50.769882,60.221264 50.245583,60.841904 
z"/>
<path fill="#1E93C3" opacity="1.000000" stroke="none" 
	d="
M47.075829,25.638277 
	C46.959988,25.899675 46.728077,25.903620 46.148277,25.900631 
	C46.186844,25.722742 46.573303,25.551785 47.075829,25.638277 
z"/>
<path fill="#1E93C3" opacity="1.000000" stroke="none" 
	d="
M48.753830,26.041271 
	C49.003544,26.108517 48.647781,26.426844 48.647781,26.426844 
	C48.647781,26.426844 48.195522,26.352304 48.097366,26.219276 
	C48.167511,26.048840 48.335812,26.011433 48.753830,26.041271 
z"/>
<path fill="#1E93C3" opacity="1.000000" stroke="none" 
	d="
M51.551849,59.173210 
	C51.425465,58.948612 51.572884,58.614964 51.970097,58.149063 
	C52.088478,58.365929 51.957062,58.715038 51.551849,59.173210 
z"/>
<path fill="#1E93C3" opacity="1.000000" stroke="none" 
	d="
M39.053589,64.245949 
	C39.263462,64.166161 39.421680,64.324760 39.525406,64.513329 
	C39.557091,64.570923 39.439007,64.710899 39.246178,64.907501 
	C39.062222,64.833183 39.021603,64.664513 39.053589,64.245949 
z"/>
</svg>